<svg width="67" height="33" viewBox="0 0 67 33" fill="none" xmlns="http://www.w3.org/2000/svg">
<path d="M2.81999 15.16C2.40666 15.16 2.08666 15.0467 1.85999 14.82C1.64666 14.58 1.53999 14.2534 1.53999 13.84V2.20002C1.53999 1.77335 1.65332 1.45335 1.87999 1.24002C2.10666 1.01335 2.42666 0.900017 2.83999 0.900017H7.65999C9.20666 0.900017 10.4 1.28668 11.24 2.06002C12.08 2.83335 12.5 3.91335 12.5 5.30002C12.5 6.68668 12.08 7.77335 11.24 8.56002C10.4 9.33335 9.20666 9.72002 7.65999 9.72002H4.09999V13.84C4.09999 14.2534 3.99332 14.58 3.77999 14.82C3.56666 15.0467 3.24666 15.16 2.81999 15.16ZM4.09999 7.70002H7.25999C8.16666 7.70002 8.85332 7.50002 9.31999 7.10002C9.78666 6.68668 10.02 6.08668 10.02 5.30002C10.02 4.51335 9.78666 3.92002 9.31999 3.52002C8.85332 3.12002 8.16666 2.92002 7.25999 2.92002H4.09999V7.70002Z" fill="#E23131"/>
<path d="M15.4316 15.16C15.0182 15.16 14.6982 15.0534 14.4716 14.84C14.2582 14.6134 14.1516 14.2934 14.1516 13.88V6.32002C14.1516 5.90668 14.2582 5.59335 14.4716 5.38002C14.6849 5.16668 14.9849 5.06002 15.3716 5.06002C15.7582 5.06002 16.0582 5.16668 16.2716 5.38002C16.4849 5.59335 16.5916 5.90668 16.5916 6.32002V7.58002H16.3916C16.5782 6.78002 16.9449 6.17335 17.4916 5.76002C18.0382 5.34668 18.7649 5.10002 19.6716 5.02002C19.9516 4.99335 20.1716 5.06668 20.3316 5.24002C20.5049 5.40002 20.6049 5.65335 20.6316 6.00002C20.6582 6.33335 20.5782 6.60668 20.3916 6.82002C20.2182 7.02002 19.9516 7.14002 19.5916 7.18002L19.1516 7.22002C18.3382 7.30002 17.7249 7.55335 17.3116 7.98002C16.8982 8.39335 16.6916 8.98002 16.6916 9.74002V13.88C16.6916 14.2934 16.5849 14.6134 16.3716 14.84C16.1582 15.0534 15.8449 15.16 15.4316 15.16Z" fill="#E23131"/>
<path d="M26.2873 15.2C25.274 15.2 24.394 14.9934 23.6473 14.58C22.9007 14.1667 22.3207 13.58 21.9073 12.82C21.494 12.0467 21.2873 11.14 21.2873 10.1C21.2873 9.31335 21.4007 8.61335 21.6273 8.00002C21.8673 7.37335 22.2073 6.84002 22.6473 6.40002C23.0873 5.94668 23.614 5.60668 24.2273 5.38002C24.8407 5.14002 25.5273 5.02002 26.2873 5.02002C27.3007 5.02002 28.1807 5.22668 28.9273 5.64002C29.674 6.05335 30.254 6.64002 30.6673 7.40002C31.0807 8.16002 31.2873 9.06002 31.2873 10.1C31.2873 10.8867 31.1673 11.5934 30.9273 12.22C30.7007 12.8467 30.3673 13.3867 29.9273 13.84C29.4873 14.28 28.9607 14.62 28.3473 14.86C27.734 15.0867 27.0473 15.2 26.2873 15.2ZM26.2873 13.3C26.7807 13.3 27.214 13.18 27.5873 12.94C27.9607 12.7 28.2473 12.3467 28.4473 11.88C28.6607 11.4 28.7673 10.8067 28.7673 10.1C28.7673 9.03335 28.5407 8.24002 28.0873 7.72002C27.634 7.18668 27.034 6.92002 26.2873 6.92002C25.794 6.92002 25.3607 7.04002 24.9873 7.28002C24.614 7.50668 24.3207 7.86002 24.1073 8.34002C23.9073 8.80668 23.8073 9.39335 23.8073 10.1C23.8073 11.1534 24.034 11.9534 24.4873 12.5C24.9407 13.0334 25.5407 13.3 26.2873 13.3Z" fill="#E23131"/>
<path d="M32.1508 18.78C31.8574 18.8067 31.6174 18.76 31.4308 18.64C31.2441 18.5334 31.1174 18.3934 31.0508 18.22C30.9708 18.0467 30.9441 17.8667 30.9708 17.68C30.9974 17.4934 31.0774 17.3267 31.2108 17.18C31.3308 17.0467 31.4974 16.9734 31.7108 16.96C32.3108 16.9067 32.7441 16.7334 33.0108 16.44C33.2908 16.16 33.4308 15.7267 33.4308 15.14V6.32002C33.4308 5.90668 33.5374 5.59335 33.7508 5.38002C33.9774 5.16668 34.2908 5.06002 34.6908 5.06002C35.0908 5.06002 35.3974 5.16668 35.6108 5.38002C35.8241 5.59335 35.9308 5.90668 35.9308 6.32002V14.92C35.9308 15.7734 35.7908 16.4734 35.5108 17.02C35.2441 17.5667 34.8308 17.98 34.2708 18.26C33.7241 18.54 33.0174 18.7134 32.1508 18.78ZM34.6708 3.22002C34.2041 3.22002 33.8374 3.10668 33.5708 2.88002C33.3174 2.64002 33.1908 2.31335 33.1908 1.90002C33.1908 1.47335 33.3174 1.14668 33.5708 0.920016C33.8374 0.69335 34.2041 0.580017 34.6708 0.580017C35.1508 0.580017 35.5174 0.69335 35.7708 0.920016C36.0241 1.14668 36.1508 1.47335 36.1508 1.90002C36.1508 2.31335 36.0241 2.64002 35.7708 2.88002C35.5174 3.10668 35.1508 3.22002 34.6708 3.22002Z" fill="#E23131"/>
<path d="M43.3465 15.2C42.2399 15.2 41.2865 14.9934 40.4865 14.58C39.6865 14.1667 39.0666 13.58 38.6266 12.82C38.1999 12.06 37.9865 11.16 37.9865 10.12C37.9865 9.10668 38.1932 8.22002 38.6066 7.46002C39.0332 6.70002 39.6132 6.10668 40.3465 5.68002C41.0932 5.24002 41.9399 5.02002 42.8866 5.02002C43.5799 5.02002 44.1999 5.13335 44.7466 5.36002C45.3066 5.58668 45.7799 5.91335 46.1666 6.34002C46.5666 6.76668 46.8666 7.28668 47.0666 7.90002C47.2799 8.50002 47.3866 9.18002 47.3866 9.94002C47.3866 10.18 47.2999 10.3667 47.1266 10.5C46.9666 10.62 46.7332 10.68 46.4266 10.68H40.0065V9.24002H45.6266L45.3066 9.54002C45.3066 8.92668 45.2132 8.41335 45.0266 8.00002C44.8532 7.58668 44.5932 7.27335 44.2466 7.06002C43.9132 6.83335 43.4932 6.72002 42.9866 6.72002C42.4266 6.72002 41.9466 6.85335 41.5466 7.12002C41.1599 7.37335 40.8599 7.74002 40.6466 8.22002C40.4466 8.68668 40.3465 9.24668 40.3465 9.90002V10.04C40.3465 11.1334 40.5999 11.9534 41.1066 12.5C41.6266 13.0334 42.3866 13.3 43.3866 13.3C43.7332 13.3 44.1199 13.26 44.5466 13.18C44.9866 13.0867 45.3999 12.9334 45.7866 12.72C46.0666 12.56 46.3132 12.4934 46.5266 12.52C46.7399 12.5334 46.9066 12.6067 47.0266 12.74C47.1599 12.8734 47.2399 13.04 47.2666 13.24C47.2932 13.4267 47.2532 13.62 47.1466 13.82C47.0532 14.02 46.8866 14.1934 46.6466 14.34C46.1799 14.6334 45.6399 14.8534 45.0266 15C44.4266 15.1334 43.8666 15.2 43.3465 15.2Z" fill="#E23131"/>
<path d="M53.8864 15.2C52.8597 15.2 51.9664 14.9934 51.2064 14.58C50.4464 14.1534 49.8597 13.5534 49.4464 12.78C49.0331 12.0067 48.8264 11.1 48.8264 10.06C48.8264 9.27335 48.9397 8.57335 49.1664 7.96002C49.4064 7.33335 49.7464 6.80668 50.1864 6.38002C50.6264 5.94002 51.1597 5.60668 51.7864 5.38002C52.4131 5.14002 53.1131 5.02002 53.8864 5.02002C54.3264 5.02002 54.7997 5.08002 55.3064 5.20002C55.8264 5.32002 56.3131 5.52002 56.7664 5.80002C56.9797 5.93335 57.1197 6.09335 57.1864 6.28002C57.2531 6.46668 57.2664 6.66002 57.2264 6.86002C57.1864 7.04668 57.0997 7.21335 56.9664 7.36002C56.8464 7.49335 56.6931 7.58002 56.5064 7.62002C56.3197 7.64668 56.1131 7.60002 55.8864 7.48002C55.5931 7.30668 55.2931 7.18002 54.9864 7.10002C54.6797 7.00668 54.3864 6.96002 54.1064 6.96002C53.6664 6.96002 53.2797 7.03335 52.9464 7.18002C52.6131 7.31335 52.3264 7.51335 52.0864 7.78002C51.8597 8.03335 51.6864 8.35335 51.5664 8.74002C51.4464 9.12668 51.3864 9.57335 51.3864 10.08C51.3864 11.0667 51.6197 11.8467 52.0864 12.42C52.5664 12.98 53.2397 13.26 54.1064 13.26C54.3864 13.26 54.6731 13.22 54.9664 13.14C55.2731 13.06 55.5797 12.9334 55.8864 12.76C56.1131 12.64 56.3131 12.6 56.4864 12.64C56.6731 12.68 56.8264 12.7734 56.9464 12.92C57.0664 13.0534 57.1397 13.22 57.1664 13.42C57.1931 13.6067 57.1664 13.7934 57.0864 13.98C57.0197 14.1667 56.8864 14.32 56.6864 14.44C56.2464 14.7067 55.7797 14.9 55.2864 15.02C54.7931 15.14 54.3264 15.2 53.8864 15.2Z" fill="#E23131"/>
<path d="M63.319 15.2C62.4524 15.2 61.7257 15.0534 61.139 14.76C60.5657 14.4667 60.1391 14.04 59.8591 13.48C59.5791 12.9067 59.4391 12.2 59.4391 11.36V7.10002H58.3991C58.0791 7.10002 57.8324 7.02002 57.659 6.86002C57.4857 6.68668 57.3991 6.45335 57.3991 6.16002C57.3991 5.85335 57.4857 5.62002 57.659 5.46002C57.8324 5.30002 58.0791 5.22002 58.3991 5.22002H59.4391V3.40002C59.4391 2.98668 59.5457 2.67335 59.7591 2.46002C59.9857 2.24668 60.2991 2.14002 60.6991 2.14002C61.0991 2.14002 61.4057 2.24668 61.6191 2.46002C61.8324 2.67335 61.9391 2.98668 61.9391 3.40002V5.22002H64.0591C64.3791 5.22002 64.6257 5.30002 64.799 5.46002C64.9724 5.62002 65.0591 5.85335 65.0591 6.16002C65.0591 6.45335 64.9724 6.68668 64.799 6.86002C64.6257 7.02002 64.3791 7.10002 64.0591 7.10002H61.9391V11.22C61.9391 11.86 62.0791 12.34 62.3591 12.66C62.6391 12.98 63.0924 13.14 63.7191 13.14C63.9457 13.14 64.1457 13.12 64.319 13.08C64.4924 13.04 64.6457 13.0134 64.7791 13C64.9391 12.9867 65.0724 13.04 65.1791 13.16C65.2857 13.2667 65.3391 13.4934 65.3391 13.84C65.3391 14.1067 65.2924 14.3467 65.1991 14.56C65.1191 14.76 64.9657 14.9 64.7391 14.98C64.5657 15.0334 64.3391 15.08 64.0591 15.12C63.7791 15.1734 63.5324 15.2 63.319 15.2Z" fill="#E23131"/>
<path d="M1.67999 32.16C1.35999 32.16 1.09999 32.0867 0.899989 31.94C0.713322 31.7934 0.599989 31.6 0.559989 31.36C0.519989 31.1067 0.566655 30.8267 0.699989 30.52L5.97999 18.82C6.15332 18.4334 6.35999 18.16 6.59999 18C6.85332 17.8267 7.13999 17.74 7.45999 17.74C7.76666 17.74 8.03999 17.8267 8.27999 18C8.53332 18.16 8.74666 18.4334 8.91999 18.82L14.22 30.52C14.3667 30.8267 14.42 31.1067 14.38 31.36C14.34 31.6134 14.2267 31.8134 14.04 31.96C13.8533 32.0934 13.6067 32.16 13.3 32.16C12.9267 32.16 12.6333 32.0734 12.42 31.9C12.22 31.7134 12.04 31.4333 11.88 31.06L10.58 28.04L11.66 28.74H3.21999L4.29999 28.04L3.01999 31.06C2.84666 31.4467 2.66666 31.7267 2.47999 31.9C2.29332 32.0734 2.02666 32.16 1.67999 32.16ZM7.41999 20.68L4.61999 27.34L4.09999 26.7H10.78L10.28 27.34L7.45999 20.68H7.41999Z" fill="#E23131"/>
<path d="M20.3698 32.2C19.5032 32.2 18.7765 32.0534 18.1898 31.76C17.6165 31.4667 17.1898 31.04 16.9098 30.48C16.6298 29.9067 16.4898 29.2 16.4898 28.36V24.1H15.4498C15.1298 24.1 14.8832 24.02 14.7098 23.86C14.5365 23.6867 14.4498 23.4534 14.4498 23.16C14.4498 22.8534 14.5365 22.62 14.7098 22.46C14.8832 22.3 15.1298 22.22 15.4498 22.22H16.4898V20.4C16.4898 19.9867 16.5965 19.6734 16.8098 19.46C17.0365 19.2467 17.3498 19.14 17.7498 19.14C18.1498 19.14 18.4565 19.2467 18.6698 19.46C18.8832 19.6734 18.9898 19.9867 18.9898 20.4V22.22H21.1098C21.4298 22.22 21.6765 22.3 21.8498 22.46C22.0232 22.62 22.1098 22.8534 22.1098 23.16C22.1098 23.4534 22.0232 23.6867 21.8498 23.86C21.6765 24.02 21.4298 24.1 21.1098 24.1H18.9898V28.22C18.9898 28.86 19.1298 29.34 19.4098 29.66C19.6898 29.98 20.1432 30.14 20.7698 30.14C20.9965 30.14 21.1965 30.12 21.3698 30.08C21.5432 30.04 21.6965 30.0134 21.8298 30C21.9898 29.9867 22.1232 30.04 22.2298 30.16C22.3365 30.2667 22.3898 30.4934 22.3898 30.84C22.3898 31.1067 22.3432 31.3467 22.2498 31.56C22.1698 31.76 22.0165 31.9 21.7898 31.98C21.6165 32.0334 21.3898 32.08 21.1098 32.12C20.8298 32.1734 20.5832 32.2 20.3698 32.2Z" fill="#E23131"/>
<path d="M25.0595 32.16C24.6595 32.16 24.3529 32.0534 24.1395 31.84C23.9262 31.6134 23.8195 31.2934 23.8195 30.88V19C23.8195 18.5867 23.9262 18.2733 24.1395 18.06C24.3529 17.8467 24.6595 17.74 25.0595 17.74C25.4595 17.74 25.7662 17.8467 25.9795 18.06C26.2062 18.2733 26.3195 18.5867 26.3195 19V24.18H26.0395C26.3329 23.4734 26.7862 22.94 27.3995 22.58C28.0262 22.2067 28.7329 22.02 29.5195 22.02C30.3062 22.02 30.9529 22.1667 31.4595 22.46C31.9662 22.7533 32.3462 23.2 32.5995 23.8C32.8529 24.3867 32.9795 25.1334 32.9795 26.04V30.88C32.9795 31.2934 32.8729 31.6134 32.6595 31.84C32.4462 32.0534 32.1395 32.16 31.7395 32.16C31.3395 32.16 31.0262 32.0534 30.7995 31.84C30.5862 31.6134 30.4795 31.2934 30.4795 30.88V26.16C30.4795 25.4 30.3329 24.8467 30.0395 24.5C29.7595 24.1534 29.3195 23.98 28.7195 23.98C27.9862 23.98 27.3995 24.2134 26.9595 24.68C26.5329 25.1334 26.3195 25.74 26.3195 26.5V30.88C26.3195 31.7334 25.8995 32.16 25.0595 32.16Z" fill="#E23131"/>
<path d="M40.3387 32.2C39.2321 32.2 38.2787 31.9934 37.4787 31.58C36.6787 31.1667 36.0587 30.58 35.6187 29.82C35.1921 29.06 34.9787 28.16 34.9787 27.12C34.9787 26.1067 35.1854 25.22 35.5987 24.46C36.0254 23.7 36.6054 23.1067 37.3387 22.68C38.0854 22.24 38.9321 22.02 39.8787 22.02C40.5721 22.02 41.1921 22.1334 41.7387 22.36C42.2987 22.5867 42.7721 22.9134 43.1587 23.34C43.5587 23.7667 43.8587 24.2867 44.0587 24.9C44.2721 25.5 44.3787 26.18 44.3787 26.94C44.3787 27.18 44.2921 27.3667 44.1187 27.5C43.9587 27.62 43.7254 27.68 43.4187 27.68H36.9987V26.24H42.6187L42.2987 26.54C42.2987 25.9267 42.2054 25.4134 42.0187 25C41.8454 24.5867 41.5854 24.2734 41.2387 24.06C40.9054 23.8333 40.4854 23.72 39.9787 23.72C39.4187 23.72 38.9387 23.8533 38.5387 24.12C38.1521 24.3733 37.8521 24.74 37.6387 25.22C37.4387 25.6867 37.3387 26.2467 37.3387 26.9V27.04C37.3387 28.1334 37.5921 28.9534 38.0987 29.5C38.6187 30.0334 39.3787 30.3 40.3787 30.3C40.7254 30.3 41.1121 30.26 41.5387 30.18C41.9787 30.0867 42.3921 29.9333 42.7787 29.72C43.0587 29.56 43.3054 29.4934 43.5187 29.52C43.7321 29.5334 43.8987 29.6067 44.0187 29.74C44.1521 29.8734 44.2321 30.04 44.2587 30.24C44.2854 30.4267 44.2454 30.62 44.1387 30.82C44.0454 31.02 43.8787 31.1934 43.6387 31.34C43.1721 31.6334 42.6321 31.8534 42.0187 32C41.4187 32.1334 40.8587 32.2 40.3387 32.2Z" fill="#E23131"/>
<path d="M47.5986 32.16C47.1986 32.16 46.8919 32.0534 46.6786 31.84C46.4652 31.6134 46.3586 31.2934 46.3586 30.88V23.32C46.3586 22.9067 46.4652 22.5933 46.6786 22.38C46.8919 22.1667 47.1919 22.06 47.5786 22.06C47.9652 22.06 48.2653 22.1667 48.4786 22.38C48.6919 22.5933 48.7986 22.9067 48.7986 23.32V24.68L48.5786 24.18C48.8719 23.4734 49.3252 22.94 49.9386 22.58C50.5652 22.2067 51.2719 22.02 52.0586 22.02C52.8452 22.02 53.4919 22.1667 53.9986 22.46C54.5053 22.7533 54.8853 23.2 55.1386 23.8C55.3919 24.3867 55.5186 25.1334 55.5186 26.04V30.88C55.5186 31.2934 55.4119 31.6134 55.1986 31.84C54.9852 32.0534 54.6786 32.16 54.2786 32.16C53.8786 32.16 53.5653 32.0534 53.3386 31.84C53.1253 31.6134 53.0186 31.2934 53.0186 30.88V26.16C53.0186 25.4 52.8719 24.8467 52.5786 24.5C52.2986 24.1534 51.8586 23.98 51.2586 23.98C50.5253 23.98 49.9386 24.2134 49.4986 24.68C49.0719 25.1334 48.8586 25.74 48.8586 26.5V30.88C48.8586 31.7334 48.4386 32.16 47.5986 32.16Z" fill="#E23131"/>
<path d="M61.2778 32.2C60.5711 32.2 59.9378 32.0667 59.3778 31.8C58.8311 31.52 58.3978 31.1467 58.0778 30.68C57.7711 30.2134 57.6178 29.6867 57.6178 29.1C57.6178 28.38 57.8045 27.8133 58.1778 27.4C58.5511 26.9733 59.1578 26.6667 59.9978 26.48C60.8378 26.2934 61.9645 26.2 63.3778 26.2H64.3778V27.64H63.3978C62.5711 27.64 61.9111 27.68 61.4178 27.76C60.9245 27.84 60.5711 27.98 60.3578 28.18C60.1578 28.3667 60.0578 28.6334 60.0578 28.98C60.0578 29.42 60.2111 29.78 60.5178 30.06C60.8245 30.34 61.2511 30.48 61.7978 30.48C62.2378 30.48 62.6245 30.38 62.9578 30.18C63.3045 29.9667 63.5778 29.68 63.7778 29.32C63.9778 28.96 64.0778 28.5467 64.0778 28.08V25.78C64.0778 25.1134 63.9311 24.6334 63.6378 24.34C63.3445 24.0467 62.8511 23.9 62.1578 23.9C61.7711 23.9 61.3511 23.9467 60.8978 24.04C60.4578 24.1333 59.9911 24.2934 59.4978 24.52C59.2445 24.64 59.0178 24.6734 58.8178 24.62C58.6311 24.5667 58.4845 24.46 58.3778 24.3C58.2711 24.1267 58.2178 23.94 58.2178 23.74C58.2178 23.54 58.2711 23.3467 58.3778 23.16C58.4845 22.96 58.6645 22.8133 58.9178 22.72C59.5311 22.4667 60.1178 22.2867 60.6778 22.18C61.2511 22.0734 61.7711 22.02 62.2378 22.02C63.1978 22.02 63.9845 22.1667 64.5978 22.46C65.2245 22.7533 65.6911 23.2 65.9978 23.8C66.3045 24.3867 66.4578 25.1467 66.4578 26.08V30.88C66.4578 31.2934 66.3578 31.6134 66.1578 31.84C65.9578 32.0534 65.6711 32.16 65.2978 32.16C64.9245 32.16 64.6311 32.0534 64.4178 31.84C64.2178 31.6134 64.1178 31.2934 64.1178 30.88V29.92H64.2778C64.1845 30.3867 63.9978 30.7933 63.7178 31.14C63.4511 31.4733 63.1111 31.7334 62.6978 31.92C62.2845 32.1067 61.8111 32.2 61.2778 32.2Z" fill="#E23131"/>
</svg>
